<svg width="100" height="100" viewBox="0 0 100 100" fill="none" xmlns="http://www.w3.org/2000/svg">
<rect width="100" height="100" fill="#05132A"/>
<path d="M14.8802 73.5297L14.9155 73.5537L14.9525 73.5704L14.9529 73.5706L14.9535 73.5709L14.9539 73.5711L14.9544 73.5713L14.9553 73.5718L14.9747 73.5813C14.9936 73.5907 15.0243 73.6066 15.0658 73.6295C15.1487 73.6753 15.2745 73.7493 15.4349 73.8569C15.7556 74.0722 16.2146 74.4222 16.7445 74.951C17.8018 76.0058 19.149 77.7793 20.2417 80.629L20.249 80.6504C20.2563 80.6712 20.2667 80.7004 20.2806 80.7371C20.3083 80.8106 20.3497 80.9146 20.407 81.0439C20.5213 81.3024 20.699 81.6628 20.9566 82.0831C21.4716 82.9232 22.3083 84.0062 23.5989 84.9896C26.123 86.913 30.308 88.3991 37.0321 87.083C37.0356 88.9577 37.0541 90.7709 37.0726 92.2773C37.0789 92.7947 37.0852 93.2752 37.091 93.7092C37.1038 94.6794 37.1135 95.4176 37.1135 95.8186C37.1135 96.3849 36.9188 96.9678 36.5069 97.3509C36.1166 97.7138 35.4523 97.9703 34.3458 97.7538C14.6768 91.1353 0.5 72.4671 0.5 50.4132C0.5 22.8074 22.6494 0.5 50.0414 0.5C77.3512 0.5 99.5809 22.8078 99.4998 50.4117V50.4132C99.4998 72.467 85.3231 91.1342 65.654 97.7548C64.5482 97.9708 63.8838 97.7142 63.4933 97.3509C63.0812 96.9675 62.8863 96.3843 62.8863 95.8175C62.8863 95.2661 62.8953 94.3027 62.9073 93.0122C62.9134 92.3568 62.9203 91.6169 62.9272 90.8038C62.9477 88.393 62.9682 85.345 62.9682 81.9628C62.9682 77.7376 61.7536 74.8022 60.1538 72.9884C65.4527 72.3047 70.857 70.8641 75.0218 67.3526C79.48 63.5936 82.4382 57.5319 82.4382 47.7418C82.4382 42.2267 80.5675 37.6758 77.3775 34.1117C77.9948 32.4129 79.3925 27.3262 76.7696 20.6825L76.6822 20.4611L76.4553 20.3894L76.3045 20.8661C76.4553 20.3894 76.4548 20.3892 76.4542 20.389L76.4531 20.3887L76.4507 20.3879L76.4445 20.3861L76.4274 20.3811C76.4139 20.3773 76.3962 20.3726 76.3743 20.3672C76.3305 20.3564 76.2697 20.343 76.1917 20.3291C76.0358 20.3014 75.8116 20.2723 75.517 20.2596C74.9276 20.2342 74.0593 20.2748 72.8965 20.5231C70.6024 21.013 67.1663 22.3101 62.4598 25.4983C58.502 24.4405 54.2324 23.8713 50.0414 23.8713H50.0408C45.8482 23.876 41.6741 24.423 37.6224 25.4986C32.9161 22.3102 29.4801 21.013 27.1861 20.5231C26.0234 20.2748 25.1552 20.2342 24.5657 20.2596C24.2712 20.2723 24.0469 20.3014 23.891 20.3291C23.8131 20.343 23.7523 20.3564 23.7084 20.3672C23.6865 20.3726 23.6688 20.3773 23.6553 20.3811L23.6383 20.3861L23.6321 20.3879L23.6296 20.3887L23.6285 20.389C23.628 20.3892 23.6275 20.3894 23.7782 20.8661L23.6275 20.3894L23.4005 20.4611L23.3131 20.6825C20.6882 27.3314 22.0893 32.4209 22.7057 34.1157C19.5971 37.674 17.6445 42.2215 17.6445 47.7418C17.6445 57.5316 20.6025 63.6138 25.0496 67.3832C29.2053 70.9057 34.5918 72.347 39.8574 72.996C38.6942 74.3527 37.7075 76.3721 37.3214 79.033C35.8822 79.6632 33.5772 80.3967 31.1247 80.1712C28.5611 79.9355 25.7869 78.6494 23.6331 74.9552C23.6322 74.9537 23.6314 74.9522 23.6305 74.9507L23.6262 74.9428C23.6239 74.9388 23.6212 74.9341 23.6182 74.9288C23.6131 74.9198 23.6069 74.909 23.5997 74.8967C23.5768 74.8573 23.5435 74.8011 23.4997 74.7305C23.4122 74.5892 23.2829 74.3896 23.1121 74.1503C22.7711 73.6724 22.2622 73.0324 21.5883 72.3808C20.2439 71.0808 18.2118 69.7062 15.5256 69.5287L15.5091 69.5276H15.4926V70.0276C15.4926 69.5276 15.4924 69.5276 15.4922 69.5276L15.4918 69.5276H15.4905L15.4866 69.5276L15.4735 69.5277C15.4626 69.5278 15.4473 69.528 15.428 69.5285C15.3893 69.5293 15.3346 69.531 15.2673 69.5342C15.1333 69.5407 14.9471 69.5536 14.7382 69.5797C14.3399 69.6293 13.7836 69.7348 13.3635 69.9833C13.148 70.1108 12.9238 70.3021 12.8032 70.5864C12.6763 70.8856 12.6972 71.2091 12.8295 71.5241C13.0736 72.1052 13.7362 72.7543 14.8802 73.5297Z" fill="white" stroke="#05132A"/>
</svg>
