<svg width="100" height="100" viewBox="0 0 100 100" fill="none" xmlns="http://www.w3.org/2000/svg">
<path d="M92.5977 0H7.38281C3.30078 0 0 3.22266 0 7.20703V92.7734C0 96.7578 3.30078 100 7.38281 100H92.5977C96.6797 100 100 96.7578 100 92.793V7.20703C100 3.22266 96.6797 0 92.5977 0ZM29.668 85.2148H14.8242V37.4805H29.668V85.2148ZM22.2461 30.9766C17.4805 30.9766 13.6328 27.1289 13.6328 22.3828C13.6328 17.6367 17.4805 13.7891 22.2461 13.7891C26.9922 13.7891 30.8398 17.6367 30.8398 22.3828C30.8398 27.1094 26.9922 30.9766 22.2461 30.9766ZM85.2148 85.2148H70.3906V62.0117C70.3906 56.4844 70.293 49.3555 62.6758 49.3555C54.9609 49.3555 53.7891 55.3906 53.7891 61.6211V85.2148H38.9844V37.4805H53.2031V44.0039H53.3984C55.3711 40.2539 60.2148 36.2891 67.4219 36.2891C82.4414 36.2891 85.2148 46.1719 85.2148 59.0234V85.2148Z" fill="white"/>
<path d="M29.668 85.7148H30.168V85.2148V37.4805V36.9805H29.668H14.8242H14.3242V37.4805V85.2148V85.7148H14.8242H29.668ZM85.2148 85.7148H85.7148V85.2148V59.0234C85.7148 52.5867 85.0259 46.7765 82.3736 42.5702C79.6881 38.3111 75.0548 35.7891 67.4219 35.7891C60.8003 35.7891 56.093 39.051 53.7031 42.5358V37.4805V36.9805H53.2031H38.9844H38.4844V37.4805V85.2148V85.7148H38.9844H53.7891H54.2891V85.2148V61.6211C54.2891 58.5147 54.5859 55.5607 55.7775 53.3927C56.3668 52.3205 57.1731 51.4447 58.2752 50.833C59.3801 50.2197 60.8122 49.8555 62.6758 49.8555C64.5002 49.8555 65.8288 50.2813 66.8084 50.9656C67.789 51.6507 68.4627 52.6248 68.9246 53.7945C69.8598 56.1628 69.8906 59.2257 69.8906 62.0117V85.2148V85.7148H70.3906H85.2148ZM7.38281 0.5H92.5977C96.4167 0.5 99.5 3.51177 99.5 7.20703V92.793C99.5 96.4696 96.4158 99.5 92.5977 99.5H7.38281C3.5673 99.5 0.5 96.4721 0.5 92.7734V7.20703C0.5 3.51007 3.56552 0.5 7.38281 0.5ZM13.1328 22.3828C13.1328 27.4058 17.2051 31.4766 22.2461 31.4766C27.2691 31.4766 31.3398 27.3848 31.3398 22.3828C31.3398 17.3606 27.2683 13.2891 22.2461 13.2891C17.2051 13.2891 13.1328 17.3598 13.1328 22.3828Z" stroke="#05132A" stroke-opacity="0.666667"/>
</svg>
